<?xml version="1.0" standalone="no"?><!DOCTYPE svg PUBLIC "-//W3C//DTD SVG 1.1//EN" "http://www.w3.org/Graphics/SVG/1.1/DTD/svg11.dtd"><svg t="1570153999886" class="icon" viewBox="0 0 1151 1024" version="1.1" xmlns="http://www.w3.org/2000/svg" p-id="11637" xmlns:xlink="http://www.w3.org/1999/xlink" width="168.603515625" height="150"><defs><style type="text/css"></style></defs><path d="M1007.222 646.356c-65.567 0-121.711-39.855-144.673-96.025a154.663 154.663 0 0 1-286.235 0c-22.936 56.221-79.144 96.025-144.647 96.025a154.277 154.277 0 0 1-143.118-96.025c-22.948 56.221-79.131 96.025-144.647 96.025a154.945 154.945 0 0 1-44.393-6.518v263.556c0 66.34 54.266 120.606 120.606 120.606h710.959c66.339 0 120.606-54.267 120.606-120.606V639.966a158.134 158.134 0 0 1-44.393 6.428z" fill="#ffc3b5" p-id="11638"></path><path d="M1049.147 142.488H98.66L0 400.67c0 77.28 64.14 141.42 143.066 141.42s144.712-62.482 144.712-141.42c0 77.28 64.128 141.42 143.066 141.42s144.712-62.482 144.712-141.42c0 77.28 64.14 141.42 143.066 141.42s143.066-62.482 143.066-141.42c0 77.28 64.128 141.42 144.712 141.42 78.938 0 144.711-62.482 144.711-141.42l-102.028-258.182z" fill="#FE4F6E" p-id="11639"></path><path d="M164.446 98.66h822.206c27.963 0 49.33-21.38 49.33-49.33S1014.615 0 986.652 0H164.446c-27.962 0-49.33 21.38-49.33 49.33s21.368 49.33 49.33 49.33z" fill="#FE4F6E" p-id="11640"></path></svg>